<?xml version="1.0" encoding="utf-8"?>
<!-- Generator: Adobe Illustrator 18.1.0, SVG Export Plug-In . SVG Version: 6.00 Build 0)  -->
<svg version="1.1" id="Слой_1" xmlns="http://www.w3.org/2000/svg" xmlns:xlink="http://www.w3.org/1999/xlink" x="0px" y="0px"
	 width="322px" height="110.6px" viewBox="0 0 322 110.6" enable-background="new 0 0 322 110.6" xml:space="preserve">
<g>
	<path fill-rule="evenodd" clip-rule="evenodd" fill="#FFFFFF" d="M0.2,53.7c0.2-6.8,6-9.4,11.8-9.5c3.4-0.1,6.6,0.9,8.8,1.9
		c1.6,0.7,2.9,1.3,2.9,2c0,0.3-0.1,0.5-0.3,0.6l-2,1.3c-0.5,0.3-1.1,0.4-1.6,0.1c-4.4-2-15.2-3.5-15.4,3.6c-0.1,4.5,5.3,5.6,8.8,6
		c6.3,0.8,11.4,4,11.2,10.4c-0.2,5.7-4.6,8.7-9.8,9.1c-4.6,0.4-9.8-1.2-13.1-3.2c-0.3-0.2-0.5-0.5-0.5-0.8c0-0.3,0.2-0.6,0.4-0.8
		c0.5-0.4,1.2-0.8,1.8-1.1C3.5,73,4.1,73,4.6,73.2c0.1,0,0.2,0.1,0.3,0.1c4.7,2.4,15,3.5,15.1-3.2c0.1-4.5-5.3-6.1-8.8-6.6
		C5.6,62.8-0.1,60.8,0.2,53.7z"/>
	<path fill-rule="evenodd" clip-rule="evenodd" fill="#FFFFFF" d="M172.8,64.4c-0.1-4.6-0.2-8.1-6.3-8.3c-0.2,0-0.3,0-0.4,0v-3.5
		c0.2,0,0.5,0,0.7,0c4.6,0.1,7.1,1.6,8.5,4.2c1.4,2.6,1.6,6.2,1.6,10.7v0l0,0c0,0.1,0,0.3-0.1,0.4c0,0.1-0.1,0.2-0.2,0.3h0
		c-0.1,0.1-0.2,0.2-0.3,0.2c-0.1,0-0.2,0.1-0.4,0.1l-9.8,0v-3.9l6.7,0L172.8,64.4L172.8,64.4z M166.1,78.8v-3.7c1,0.1,2,0,3.1-0.1
		c2-0.2,4.1-0.6,5.7-1.2c0.2-0.1,0.5-0.1,0.7,0l0,0l0,0c0.2,0.1,0.4,0.3,0.5,0.5l0.6,1.4c0.1,0.1,0.1,0.3,0.1,0.4v0l0,0
		c0,0.1,0,0.3-0.1,0.4c-0.1,0.1-0.1,0.2-0.2,0.3c-0.1,0.1-0.2,0.2-0.3,0.2l0,0c-2.2,0.7-4.2,1.3-6.4,1.5
		C168.6,78.8,167.3,78.9,166.1,78.8z M166.1,56.1c-2.9,0-4.5,0.6-5.5,2c-1,1.4-1.2,3.6-1.3,6.4l6.7,0v3.9l-6.7,0
		c0.1,1.8,0.4,3.2,1.1,4.3c0.7,1.1,1.8,1.8,3.5,2.2c0.7,0.1,1.4,0.2,2.1,0.3v3.7c-0.9,0-1.9-0.1-2.9-0.3l0,0c-2.1-0.4-3.8-1.1-5-2.2
		c-1.2-1.1-2.1-2.6-2.6-4.5l0,0c-0.5-1.7-0.7-4.1-0.7-6.5c0-2.4,0.3-4.8,0.8-6.4c0.8-2.7,2.4-4.3,4.4-5.2c1.8-0.8,3.9-1,6.1-1V56.1z
		"/>
	<path fill-rule="evenodd" clip-rule="evenodd" fill="#FFFFFF" d="M78.7,57.2V77c0,0.3-0.1,0.7-0.4,0.9v0c-0.2,0.2-0.5,0.4-0.9,0.4
		h-1.9c-0.3,0-0.7-0.1-0.9-0.4c-0.2-0.2-0.4-0.5-0.4-0.9c0-5,0-7.2,0-9.3c0-3.4,0-6.7,0-9.3c0-3,1.8-4.5,4.3-5.2
		c2.4-0.7,5.4-0.7,8.1-0.6c0.2,0,0.4,0.1,0.5,0.2c0.1,0.1,0.2,0.3,0.2,0.5v2.4c0,0.7-0.4,0.9-1.1,0.9C83.7,56.5,81.1,56.5,78.7,57.2
		z"/>
	<path fill-rule="evenodd" clip-rule="evenodd" fill="#FFFFFF" d="M115.8,57.3V77c0,0.3-0.1,0.7-0.4,0.9v0c-0.2,0.2-0.5,0.4-0.9,0.4
		h-1.8c-0.3,0-0.7-0.1-0.9-0.4c-0.2-0.2-0.4-0.5-0.4-0.9c0-5.1,0-7.2,0-9.3c0-3.4,0-6.7,0-9.3c0-1.7,0.3-2.8,1-3.4
		c1.6-1.6,10.1-2.5,12.3-2.4c2.2,0,4.2,0.5,5.8,1.6c3.9-1.4,11.5-2.1,14.7-1c1.7,0.5,2.7,1.3,3.3,2.2c0.9,1.5,0.9,3.4,0.9,5.1V77
		c0,0.3-0.1,0.7-0.4,0.9v0c-0.2,0.2-0.5,0.4-0.9,0.4h-1.8c-0.3,0-0.7-0.1-0.9-0.4c-0.2-0.2-0.4-0.5-0.4-0.9c0-5.3,0-10.7,0-16
		c0-2.4-0.5-3.7-1.6-4.3c-1.1-0.6-2.9-0.6-5.3-0.3c-1.2,0.1-2.3,0.3-3.4,0.5c-1,0.2-1.9,0.4-2.5,0.5V77c0,0.3-0.1,0.7-0.4,0.9v0
		c-0.2,0.2-0.5,0.4-0.9,0.4h-1.8c-0.3,0-0.7-0.1-0.9-0.4c-0.2-0.2-0.4-0.5-0.4-0.9c0-4.8,0-6.8,0-8.8c0-3,0-5.9,0-7.9
		c0-2-0.3-3.1-1.3-3.7c-1-0.6-2.7-0.6-5.3-0.3c-1.2,0.1-2.3,0.3-3.4,0.5C117.2,56.9,116.4,57.1,115.8,57.3z"/>
	<path fill-rule="evenodd" clip-rule="evenodd" fill="#FFFFFF" d="M64.5,60.7v-2.9c0-0.4-0.1-0.7-0.4-0.9l0,0
		c-0.3-0.3-0.7-0.6-1.1-0.8c-1.2-0.5-2.8-0.6-4.7-0.5v-3.7l0,0c2.5-0.1,4.9,0.1,6.7,0.7c1.2,0.4,2.2,1.1,2.8,2c0.7,0.9,1,1.9,1,3.1
		c0,2.9,0,5.5,0,8c0,1.6,0,3.2,0,8c0,1-0.5,1.8-1.1,2.4c-0.9,0.7-2.1,1.2-3.1,1.4c-1.9,0.4-4.1,0.7-6.2,0.7v-3.4
		c0.6,0,1.2,0,1.8-0.1c1.2-0.1,2.1-0.3,2.8-0.4v0l0,0c0.6-0.1,1.1-0.3,1.6-0.4l0-1.5h0v-7.5C64.3,65,64,65,63.9,65l0,0
		c-1.3,0.2-2.8,0.4-4.2,0.6l-1.3,0.2v-3.9c0.6-0.1,1.1-0.1,1.7-0.2c1.4-0.1,2.7-0.3,4.1-0.5c0.1,0,0.2-0.1,0.3-0.2
		C64.4,61,64.5,60.8,64.5,60.7z M58.3,55.6c-0.3,0-0.6,0-0.8,0.1c-2.3,0.2-4.9,0.8-7.6,1.4c-0.2,0.1-0.4,0-0.5-0.2
		c-0.1-0.1-0.2-0.3-0.3-0.5c-0.1-0.5-0.2-0.8-0.3-1.2c-0.1-0.4-0.1-0.7-0.1-1.2c0-0.2,0.1-0.4,0.2-0.5l0,0v0
		c0.1-0.1,0.3-0.2,0.5-0.2c2.9-0.7,6.1-1.2,8.9-1.4V55.6L58.3,55.6z M58.3,78.2c-1.4,0-2.7,0-4-0.3c-3.3-0.6-5.9-2.3-6.5-5.9
		c0,0,0,0,0,0c-0.8-8.3,4.5-9.5,10.5-10.1v3.9c-1,0.1-1.8,0.3-2.4,0.3c-3.8,0.7-3.8,2.4-3.8,4v0v0c0,0.2,0,0.5,0,0.7
		c0.1,1.3,0.8,2.3,1.7,2.9c1,0.6,2.4,1,4.1,1c0.1,0,0.2,0,0.3,0V78.2z"/>
	<path fill-rule="evenodd" clip-rule="evenodd" fill="#FFFFFF" d="M93.8,45.7l2.3-1.4c0.7-0.4,1.5-0.1,1.5,0.8v7.9h7.8
		c0.2,0,0.4,0.1,0.5,0.2h0l0,0c0.1,0.1,0.2,0.3,0.2,0.5V56c0,0.4-0.3,0.7-0.7,0.7h-7.8v14.9c0,0.5,0,1.2,0.1,1.7
		c0.2,1.1,1,1.6,2,1.8c1.3,0.3,3,0,4.8-0.4c0.1,0,0.3,0,0.4,0l0,0c0.1,0,0.2,0.1,0.3,0.1c0.1,0.1,0.2,0.2,0.3,0.3
		c0.1,0.1,0.1,0.2,0.1,0.3l0,0l0.3,1.5c0.1,0.2,0,0.5-0.1,0.7l0,0c-0.1,0.2-0.3,0.3-0.5,0.4l0,0c-1.2,0.4-2.7,0.7-4.3,0.7
		c-1.6,0-3.2-0.2-4.5-0.9c-1.4-0.6-2.4-1.6-3-3.1h0c-0.4-1.1-0.4-2-0.4-3.1V47C93.2,46.5,93.2,46.1,93.8,45.7z"/>
	<path fill-rule="evenodd" clip-rule="evenodd" fill="#FFFFFF" d="M30.5,45.7l2.2-1.4c0.7-0.4,1.5-0.1,1.5,0.8v7.9H42
		c0.2,0,0.4,0.1,0.5,0.2h0l0,0c0.1,0.1,0.2,0.3,0.2,0.5V56c0,0.4-0.3,0.7-0.7,0.7h-7.8v14.9c0,0.5,0,1.2,0.1,1.7
		c0.2,1.1,1,1.6,2,1.8c1.3,0.3,3,0,4.8-0.4c0.1,0,0.3,0,0.4,0l0,0c0.1,0,0.2,0.1,0.3,0.1c0.1,0.1,0.2,0.2,0.3,0.3
		c0.1,0.1,0.1,0.2,0.1,0.3l0,0l0.3,1.5c0.1,0.2,0,0.5-0.1,0.7l0,0c-0.1,0.2-0.3,0.3-0.5,0.4l0,0c-1.2,0.4-2.7,0.7-4.3,0.7
		c-1.6,0-3.2-0.2-4.5-0.9c-1.4-0.6-2.4-1.6-3-3.1h0c-0.4-1.1-0.4-2-0.4-3.1V47C29.9,46.5,29.9,46.1,30.5,45.7z"/>
	<path fill-rule="evenodd" clip-rule="evenodd" fill="#FFFFFF" d="M293.2,73.5V53.7c0-0.3,0.1-0.7,0.4-0.9v0
		c0.2-0.2,0.5-0.4,0.9-0.4h1.8c0.3,0,0.7,0.1,0.9,0.4c0.2,0.2,0.4,0.5,0.4,0.9c0,5.1,0,7.2,0,9.3c0,3.4,0,6.7,0,9.3
		c0,1.7-0.3,2.8-1,3.4c-1.6,1.6-10.1,2.4-12.3,2.4c-4.2-0.1-7.7-1.6-7.7-6.2V53.7c0-0.3,0.1-0.7,0.4-0.9l0,0
		c0.2-0.2,0.5-0.4,0.9-0.4h1.8c0.3,0,0.7,0.1,0.9,0.4c0.2,0.2,0.4,0.5,0.4,0.9c0,4.8,0,6.8,0,8.8c0,3,0,5.9,0,7.9
		c0,2,0.3,3.1,1.3,3.7c1,0.6,2.7,0.6,5.3,0.3c1.2-0.1,2.3-0.3,3.4-0.5C291.7,73.8,292.6,73.6,293.2,73.5z"/>
	<path fill-rule="evenodd" clip-rule="evenodd" fill="#FFFFFF" d="M311.7,51.8c1.4,0,2.7,0,4,0.3c3.3,0.6,5.9,2.3,6.5,5.9
		c0,0,0,0,0,0c0.8,8.3-4.5,9.5-10.5,10.1v-3.9c1-0.1,1.8-0.3,2.4-0.3c1.5-0.3,2.5-0.7,3-1.3c0.8-0.8,0.9-2.3,0.8-3.5
		c-0.1-1.3-0.8-2.3-1.7-2.9c-1-0.6-2.4-1-4.1-1c-0.1,0-0.2,0-0.3,0V51.8z M305.5,69.4v7.8c0,0.6-0.5,1.1-1.1,1.1h-2.1
		c-0.6,0-1.1-0.5-1.1-1.1c0-3.4,0-10.9,0-12.8c0-1.6,0-3.2,0-8c0-1,0.5-1.8,1.1-2.4c0.9-0.7,2.1-1.2,3.1-1.4
		c1.9-0.4,4.1-0.7,6.3-0.7v3.4c-0.6,0-1.2,0-1.8,0.1c-1.2,0.1-2.1,0.3-2.8,0.4l0,0h0c-0.6,0.1-1.1,0.3-1.6,0.4l0,1.5h0v7.5
		c0.2-0.1,0.4-0.1,0.6-0.2l0,0c1.3-0.2,2.8-0.4,4.2-0.6l1.4-0.2v3.9c-0.6,0.1-1.1,0.1-1.7,0.2c-1.4,0.1-2.7,0.3-4.1,0.5
		c-0.1,0-0.2,0.1-0.3,0.2C305.5,69.1,305.5,69.2,305.5,69.4z"/>
	<path fill-rule="evenodd" clip-rule="evenodd" fill="#684D7B" d="M226.9,92.3c-1.5-11.4-2.4-19.6-4.3-33.6
		c-6.5-0.6-13,2.9-18.9,6.2c2.4,18.5,8.2,15.4,17,28.1C222.7,92.6,224.8,92.3,226.9,92.3z"/>
	<path fill-rule="evenodd" clip-rule="evenodd" fill="#4B4570" d="M216.2,59.3c-1.2,0.4-2.4,0.8-3.6,1.1
		c2.6,11.7,7.5,22.1,12.1,32.1C221.5,81.9,217.9,71,216.2,59.3z"/>
	<linearGradient id="SVGID_1_" gradientUnits="userSpaceOnUse" x1="229.1583" y1="94.3279" x2="228.2027" y2="39.5822">
		<stop  offset="0" style="stop-color:#684D7B"/>
		<stop  offset="1" style="stop-color:#D24B43"/>
	</linearGradient>
	<path fill-rule="evenodd" clip-rule="evenodd" fill="url(#SVGID_1_)" d="M225.8,92.4c-1-12.5-1.6-26.8-7.3-49.9
		c-0.1-0.4,0.1-0.8,0.5-1c5.8-2.2,11.4-2.7,17.8-1.3c3.3,19,0.5,36.2-4.1,52.5C230.4,92.3,228.1,92.2,225.8,92.4z"/>
	<linearGradient id="SVGID_2_" gradientUnits="userSpaceOnUse" x1="252.8036" y1="-23.9022" x2="250.1797" y2="126.4177">
		<stop  offset="0" style="stop-color:#D86C43"/>
		<stop  offset="1" style="stop-color:#D24C43"/>
	</linearGradient>
	<path fill-rule="evenodd" clip-rule="evenodd" fill="url(#SVGID_2_)" d="M234.2,92.9c9.8-15.3,28-40.3,20.2-73.8
		c-0.1-0.3,0-0.6,0.3-0.8s0.6-0.3,0.9-0.2c4.4,1.6,8,4,10.4,7.1c0.8,1.1,1.3,2.1,1.6,3.5c5.4,31.1-19.7,53.3-28.8,63.2
		c-1,1-2.3,1.5-3.7,1.2C234.8,93,234.5,93,234.2,92.9z"/>
	<path opacity="0.7" fill-rule="evenodd" clip-rule="evenodd" fill="#D35043" d="M234.2,92.9c8.6-13.5,26.3-36.3,20.9-70.5
		c1.8,0.8,7.9,4.5,8.1,7c2.2,26.8-8.6,44.3-26.5,63.3c-0.4,0.4-1,0.6-1.5,0.5C234.9,93.1,234.5,93,234.2,92.9z"/>
	<linearGradient id="SVGID_3_" gradientUnits="userSpaceOnUse" x1="154.3694" y1="145.682" x2="296.1628" y2="-42.4841">
		<stop  offset="0" style="stop-color:#D24C43"/>
		<stop  offset="0.49" style="stop-color:#D86843"/>
		<stop  offset="1" style="stop-color:#E49944"/>
	</linearGradient>
	<path fill-rule="evenodd" clip-rule="evenodd" fill="url(#SVGID_3_)" d="M227.1,92.3c6.7-27.7,4.4-61.1-3-90.8
		c-0.1-0.3,0-0.5,0.2-0.7c0.2-0.2,0.4-0.3,0.7-0.3c4.1,0,10.4,0.3,15.4,2.2c2.1,0.8,3.7,2.2,4.5,4.3c12.7,31.4,1.5,64.1-11.4,85.8
		C231.4,92.4,229.2,92.2,227.1,92.3z"/>
	<linearGradient id="SVGID_4_" gradientUnits="userSpaceOnUse" x1="194.5902" y1="24.0606" x2="226.8305" y2="96.4734">
		<stop  offset="0" style="stop-color:#6EC0E5"/>
		<stop  offset="0.67" style="stop-color:#4D5D9D"/>
		<stop  offset="1" style="stop-color:#504A7B"/>
	</linearGradient>
	<path fill-rule="evenodd" clip-rule="evenodd" fill="url(#SVGID_4_)" d="M224.8,92.4c-6.5-14.5-16.1-37.9-16.9-68.2
		c0-0.3-0.1-0.5-0.4-0.7c-0.2-0.2-0.5-0.2-0.8-0.1c-4.1,1.3-7.8,3-11.2,5.2c-1.5,1-2.3,2.5-2.3,4.2c-0.4,30.6,15.5,48.6,22.7,57.6
		c1.5,1.9,3.8,2.8,6.2,2.3C223.1,92.7,223.9,92.5,224.8,92.4z"/>
	<path opacity="0.6" fill-rule="evenodd" clip-rule="evenodd" fill="#485487" d="M195.5,52.7c4.5,18.9,15.1,30.9,20.6,37.8
		c1.5,1.9,3.8,2.8,6.2,2.3c0,0,0.1,0,0.1,0c-10.7-21-11-23.7-16.1-44c-0.1-0.4-0.5-0.7-1-0.5C201.8,49.2,198.5,50.7,195.5,52.7z"/>
	<linearGradient id="SVGID_5_" gradientUnits="userSpaceOnUse" x1="213.5651" y1="108.2289" x2="194.4691" y2="36.9615">
		<stop  offset="0" style="stop-color:#4A95C8"/>
		<stop  offset="0.41" style="stop-color:#4A95C8"/>
		<stop  offset="1" style="stop-color:#D3EAF8"/>
	</linearGradient>
	<path fill-rule="evenodd" clip-rule="evenodd" fill="url(#SVGID_5_)" d="M215.7,91.4c-12.1-11.5-22.4-19.5-28.7-34.4
		c-0.1-0.3-0.1-0.7,0.2-1c4-3.5,8.4-6.1,13.4-7.5c0.4-0.1,0.9,0.1,1,0.5c7.2,20.1,7.7,22.8,20.6,43.8c-0.2,0-0.5,0.1-0.7,0.2
		C219.4,93.4,217.3,92.9,215.7,91.4z"/>
	<linearGradient id="SVGID_6_" gradientUnits="userSpaceOnUse" x1="262.9818" y1="139.3477" x2="224.1916" y2="-16.2313">
		<stop  offset="0" style="stop-color:#D96D43"/>
		<stop  offset="1" style="stop-color:#F1BE44"/>
	</linearGradient>
	<path fill-rule="evenodd" clip-rule="evenodd" fill="url(#SVGID_6_)" d="M234.5,93c8.4-11,24.9-29.8,24.4-55.1
		c0-1.1-0.5-1.9-1.4-2.5c-4.6-2.8-9.5-4.1-14.6-4.6c-0.3,0-0.5,0-0.7,0.2c-0.2,0.2-0.3,0.4-0.3,0.7c1.1,27.2-3.6,40.6-11.9,60.7
		C231.5,92.5,233,92.7,234.5,93z"/>
	<path opacity="0.2" fill-rule="evenodd" clip-rule="evenodd" fill="#30222F" d="M230.2,39.4c-0.9,0-3.1,0-5.5,0.5
		c3.2,17.4,4.9,36.4,2.2,52.3C230.3,76.3,232.1,59.3,230.2,39.4z"/>
	<linearGradient id="SVGID_7_" gradientUnits="userSpaceOnUse" x1="245.8941" y1="87.3801" x2="227.3971" y2="2.2439">
		<stop  offset="0.1587" style="stop-color:#D96D43"/>
		<stop  offset="1" style="stop-color:#F1BE44"/>
	</linearGradient>
	<path fill-rule="evenodd" clip-rule="evenodd" fill="url(#SVGID_7_)" d="M250,28.1c0,1,0.3,3.1,0.3,4.1c-2.5-0.5-4.9-0.9-7.4-1.4
		c-0.3-0.1-0.5,0-0.7,0.2c-0.2,0.2-0.3,0.4-0.3,0.7c1.3,22.5-2.7,42.7-11.9,60.5c7.8-20.1,9.9-42.7,7.6-65.7c-0.1-0.6,0.5-1,1-0.9
		C241.9,26,247.1,27,250,28.1z"/>
	<path fill-rule="evenodd" clip-rule="evenodd" fill="#FFFFFF" d="M221.6,98.5c4.1-0.9,8.2-1,12.3-0.1c1.5,0.3,2.6,1.6,2.6,3.2
		c0,1,0,1.9,0,2.9c-5.8-1.6-11.7-1.5-17.5,0.2c0-0.9,0-1.9,0-2.8C219,100.1,220.1,98.8,221.6,98.5z"/>
	<path fill-rule="evenodd" clip-rule="evenodd" fill="#FFFFFF" d="M223.9,105.9c2.6-0.6,5.2-0.6,7.8-0.1c1,0.2,1.7,1,1.7,2
		c0,0.6,0,1.2,0,1.8c-3.7,2-7.4,1.9-11.2,0.1c0-0.6,0-1.2,0-1.8C222.2,106.9,222.9,106.1,223.9,105.9z"/>
	<path opacity="0.5" fill-rule="evenodd" clip-rule="evenodd" fill="#FFFFFF" d="M257.4,35.4L257.4,35.4c-5.1-3.3-9-4-14.6-4.7
		c-0.5-0.1-1,0.4-1,0.9c1.1,27.2-2.8,41.7-11.9,60.8c0.2,0,0.3,0,0.5,0c9.2-19.8,13.1-33.4,12-60.5c0-0.5,0.4-0.8,0.9-0.8
		C248.8,31.9,252.5,32.3,257.4,35.4z"/>
	<path opacity="0.4" fill-rule="evenodd" clip-rule="evenodd" fill="#FFFFFF" d="M186.7,56.2c0-0.1,0.1-0.1,0.1-0.2
		c4-3.5,8.4-6.1,13.4-7.5c0.4-0.1,0.9,0.1,1,0.5c7.2,20.1,7.7,22.8,20.6,43.8c-0.2,0-0.4,0.1-0.6,0.1
		c-12.7-20.7-13.3-23.5-20.5-43.5c-0.2-0.4-0.6-0.7-1-0.5C195,50.3,190.6,52.8,186.7,56.2z"/>
</g>
</svg>
