<?xml version="1.0" encoding="utf-8"?>
<!-- Generator: Adobe Illustrator 18.1.0, SVG Export Plug-In . SVG Version: 6.00 Build 0)  -->
<svg version="1.1" id="Слой_1" xmlns="http://www.w3.org/2000/svg" xmlns:xlink="http://www.w3.org/1999/xlink" x="0px" y="0px"
	 width="21.4px" height="21.4px" viewBox="0 0 21.4 21.4" enable-background="new 0 0 21.4 21.4" xml:space="preserve">
<g id="Page-1">
	<g id="icon-111-search">
		<path id="search" fill="#FFFFFF" d="M13.4,15.4c-1.4,1-3.1,1.6-4.9,1.6C3.8,17,0,13.2,0,8.5C0,3.8,3.8,0,8.5,0
			C13.2,0,17,3.8,17,8.5c0,1.8-0.6,3.5-1.6,4.9L21,19c0.6,0.6,0.5,1.4,0,2l0,0c-0.5,0.5-1.4,0.5-2,0L13.4,15.4L13.4,15.4z M8.5,15
			c3.6,0,6.5-2.9,6.5-6.5C15,4.9,12.1,2,8.5,2C4.9,2,2,4.9,2,8.5C2,12.1,4.9,15,8.5,15L8.5,15z"/>
	</g>
</g>
</svg>
